<svg width="50" height="50" viewBox="0 0 50 50" fill="none" xmlns="http://www.w3.org/2000/svg">
<g clip-path="url(#clip0_55_1272)">
<path d="M44.9557 33.5209L42.685 17.5626C42.1017 13.4584 38.5811 10.4167 34.4355 10.4167H15.5615C11.4159 10.4167 7.8953 13.4584 7.312 17.5626L5.04129 33.5209C4.58298 36.7293 7.06201 39.5834 10.291 39.5834C11.7076 39.5834 13.0408 39.0209 14.0408 38.0209L18.7488 33.3334H31.2481L35.9354 38.0209C36.9353 39.0209 38.2894 39.5834 39.6852 39.5834C42.935 39.5834 45.414 36.7293 44.9557 33.5209ZM22.9153 22.9167H18.7488V27.0834H16.6656V22.9167H12.4992V20.8334H16.6656V16.6667H18.7488V20.8334H22.9153V22.9167ZM31.2481 20.8334C30.1024 20.8334 29.1649 19.8959 29.1649 18.7501C29.1649 17.6042 30.1024 16.6667 31.2481 16.6667C32.3939 16.6667 33.3314 17.6042 33.3314 18.7501C33.3314 19.8959 32.3939 20.8334 31.2481 20.8334ZM35.4146 27.0834C34.2688 27.0834 33.3314 26.1459 33.3314 25.0001C33.3314 23.8543 34.2688 22.9167 35.4146 22.9167C36.5603 22.9167 37.4978 23.8543 37.4978 25.0001C37.4978 26.1459 36.5603 27.0834 35.4146 27.0834Z" fill="#2A7AE4"/>
</g>
<defs>
<clipPath id="clip0_55_1272">
<rect width="49.9972" height="50" fill="white"/>
</clipPath>
</defs>
</svg>
